{
  "asset": {
    "version": "2.0",
    "generator": "THREE.GLTFExporter r185"
  },
  "scenes": [
    {
      "nodes": [
        0,
        1,
        2
      ]
    }
  ],
  "scene": 0,
  "nodes": [
    {
      "name": "Sun_Photosphere_Core",
      "mesh": 0
    },
    {
      "name": "Sun_Chromosphere_Shell",
      "mesh": 1
    },
    {
      "name": "Sun_Corona_Shell",
      "mesh": 2
    }
  ],
  "bufferViews": [
    {
      "buffer": 0,
      "byteOffset": 0,
      "byteLength": 50700,
      "target": 34962,
      "byteStride": 12
    },
    {
      "buffer": 0,
      "byteOffset": 50700,
      "byteLength": 50700,
      "target": 34962,
      "byteStride": 12
    },
    {
      "buffer": 0,
      "byteOffset": 101400,
      "byteLength": 33800,
      "target": 34962,
      "byteStride": 8
    },
    {
      "buffer": 0,
      "byteOffset": 135200,
      "byteLength": 48384,
      "target": 34963
    },
    {
      "buffer": 0,
      "byteOffset": 183584,
      "byteLength": 28812,
      "target": 34962,
      "byteStride": 12
    },
    {
      "buffer": 0,
      "byteOffset": 212396,
      "byteLength": 28812,
      "target": 34962,
      "byteStride": 12
    },
    {
      "buffer": 0,
      "byteOffset": 241208,
      "byteLength": 19208,
      "target": 34962,
      "byteStride": 8
    },
    {
      "buffer": 0,
      "byteOffset": 260416,
      "byteLength": 27072,
      "target": 34963
    },
    {
      "buffer": 0,
      "byteOffset": 287488,
      "byteLength": 16428,
      "target": 34962,
      "byteStride": 12
    },
    {
      "buffer": 0,
      "byteOffset": 303916,
      "byteLength": 16428,
      "target": 34962,
      "byteStride": 12
    },
    {
      "buffer": 0,
      "byteOffset": 320344,
      "byteLength": 10952,
      "target": 34962,
      "byteStride": 8
    },
    {
      "buffer": 0,
      "byteOffset": 331296,
      "byteLength": 15120,
      "target": 34963
    }
  ],
  "buffers": [
    {
      "byteLength": 346416,
      "uri": "data:application/octet-stream;base64,"
    }
  ],
  "accessors": [
    {
      "bufferView": 0,
      "componentType": 5126,
      "count": 4225,
      "max": [
        2.799999952316284,
        2.799999952316284,
        2.799999952316284
      ],
      "min": [
        -2.799999952316284,
        -2.799999952316284,
        -2.799999952316284
      ],
      "type": "VEC3"
    },
    {
      "bufferView": 1,
      "componentType": 5126,
      "count": 4225,
      "max": [
        1,
        1,
        1
      ],
      "min": [
        -1,
        -1,
        -1
      ],
      "type": "VEC3"
    },
    {
      "bufferView": 2,
      "componentType": 5126,
      "count": 4225,
      "max": [
        1.0078125,
        1
      ],
      "min": [
        -0.0078125,
        0
      ],
      "type": "VEC2"
    },
    {
      "bufferView": 3,
      "componentType": 5123,
      "count": 24192,
      "max": [
        4224
      ],
      "min": [
        0
      ],
      "type": "SCALAR"
    },
    {
      "bufferView": 4,
      "componentType": 5126,
      "count": 2401,
      "max": [
        2.9800000190734863,
        2.9800000190734863,
        2.9800000190734863
      ],
      "min": [
        -2.9800000190734863,
        -2.9800000190734863,
        -2.9800000190734863
      ],
      "type": "VEC3"
    },
    {
      "bufferView": 5,
      "componentType": 5126,
      "count": 2401,
      "max": [
        1,
        1,
        1
      ],
      "min": [
        -1,
        -1,
        -1
      ],
      "type": "VEC3"
    },
    {
      "bufferView": 6,
      "componentType": 5126,
      "count": 2401,
      "max": [
        1.0104166269302368,
        1
      ],
      "min": [
        -0.010416666977107525,
        0
      ],
      "type": "VEC2"
    },
    {
      "bufferView": 7,
      "componentType": 5123,
      "count": 13536,
      "max": [
        2400
      ],
      "min": [
        0
      ],
      "type": "SCALAR"
    },
    {
      "bufferView": 8,
      "componentType": 5126,
      "count": 1369,
      "max": [
        3.5999999046325684,
        3.5999999046325684,
        3.5999999046325684
      ],
      "min": [
        -3.5999999046325684,
        -3.5999999046325684,
        -3.5999999046325684
      ],
      "type": "VEC3"
    },
    {
      "bufferView": 9,
      "componentType": 5126,
      "count": 1369,
      "max": [
        1,
        1,
        1
      ],
      "min": [
        -1,
        -1,
        -1
      ],
      "type": "VEC3"
    },
    {
      "bufferView": 10,
      "componentType": 5126,
      "count": 1369,
      "max": [
        1.0138888359069824,
        1
      ],
      "min": [
        -0.013888888992369175,
        0
      ],
      "type": "VEC2"
    },
    {
      "bufferView": 11,
      "componentType": 5123,
      "count": 7560,
      "max": [
        1368
      ],
      "min": [
        0
      ],
      "type": "SCALAR"
    }
  ],
  "materials": [
    {
      "pbrMetallicRoughness": {
        "baseColorFactor": [
          1,
          0.9559733532482866,
          0.8227857543924378,
          1
        ],
        "metallicFactor": 0,
        "roughnessFactor": 0.1
      },
      "emissiveFactor": [
        1,
        0.1844749944900301,
        0
      ],
      "extensions": {
        "KHR_materials_emissive_strength": {
          "emissiveStrength": 4.5
        }
      }
    },
    {
      "pbrMetallicRoughness": {
        "baseColorFactor": [
          1,
          0.4019777798219466,
          0,
          0.7
        ],
        "metallicFactor": 0,
        "roughnessFactor": 0.4
      },
      "emissiveFactor": [
        1,
        0.057805430183792694,
        0
      ],
      "alphaMode": "BLEND",
      "extensions": {
        "KHR_materials_emissive_strength": {
          "emissiveStrength": 2.5
        }
      }
    },
    {
      "pbrMetallicRoughness": {
        "baseColorFactor": [
          1,
          0.033104766565152086,
          0,
          0.35
        ],
        "metallicFactor": 0,
        "roughnessFactor": 1
      },
      "emissiveFactor": [
        0.85499260812105,
        0.005605391621829108,
        0
      ],
      "alphaMode": "BLEND",
      "extensions": {
        "KHR_materials_emissive_strength": {
          "emissiveStrength": 1.8
        }
      }
    }
  ],
  "meshes": [
    {
      "primitives": [
        {
          "mode": 4,
          "attributes": {
            "POSITION": 0,
            "NORMAL": 1,
            "TEXCOORD_0": 2
          },
          "indices": 3,
          "material": 0
        }
      ]
    },
    {
      "primitives": [
        {
          "mode": 4,
          "attributes": {
            "POSITION": 4,
            "NORMAL": 5,
            "TEXCOORD_0": 6
          },
          "indices": 7,
          "material": 1
        }
      ]
    },
    {
      "primitives": [
        {
          "mode": 4,
          "attributes": {
            "POSITION": 8,
            "NORMAL": 9,
            "TEXCOORD_0": 10
          },
          "indices": 11,
          "material": 2
        }
      ]
    }
  ],
  "extensionsUsed": [
    "KHR_materials_emissive_strength"
  ]
}